# xmcd
# 
# Track frame offsets:
#     150
#     20705
#     27622
#     37820
#     43467
#     53432
#     73110
#     77152
#     87802
#     104900
#     116185
#     122360
#     135212
#     155215
#     157720
# 
# Disc length: 2438
# 
# Revision: 0
# Processed by: cddbd v1.5.2PL0 Copyright (c) Steve Scherf et al.
# Submitted via: fre:ac v1.1beta1pre4
# 
DISCID=c609840f
DTITLE=天野正道 - メルティランサー -The Animation- OST Vol.1
DYEAR=1999
DGENRE=Soundtrack
TTITLE0=松浦有希/Flying High
TTITLE1=ビデオ・サントラ/METEORIC IMPACT
TTITLE2=ビデオ・サントラ/DEFIANT
TTITLE3=ビデオ・サントラ/THE AUTHORITIES
TTITLE4=ビデオ・サントラ/THE PARTY
TTITLE5=ビデオ・サントラ/SCRAMBLE
TTITLE6=ビデオ・サントラ/WILD LIFE
TTITLE7=ビデオ・サントラ/GENERATION GAP
TTITLE8=ビデオ・サントラ/THE INTRUDER
TTITLE9=ビデオ・サントラ/RED ALERT
TTITLE10=ビデオ・サントラ/ESCAPE
TTITLE11=ビデオ・サントラ/METEORIC IMPACT -reprise-
TTITLE12=ビデオ・サントラ/THE OLD MAN’S BLUES
TTITLE13=ビデオ・サントラ/TO BE CONTINUED
TTITLE14=aya/夢見たわたしのそばへ
EXTD=
EXTT0=
EXTT1=
EXTT2=
EXTT3=
EXTT4=
EXTT5=
EXTT6=
EXTT7=
EXTT8=
EXTT9=
EXTT10=
EXTT11=
EXTT12=
EXTT13=
EXTT14=
PLAYORDER=
